<svg width="25" height="25" viewBox="0 0 25 25" fill="none" xmlns="http://www.w3.org/2000/svg">
<path d="M12.6152 0.132917C19.3046 0.117869 24.7367 5.52559 24.7518 12.215C24.7668 18.9045 19.3591 24.3366 12.6697 24.3516C5.98025 24.3667 0.548146 18.9589 0.533099 12.2695C0.518051 5.58006 5.92577 0.147964 12.6152 0.132917ZM18.2021 11.3997L11.571 4.79836C11.111 4.34041 10.3688 4.34208 9.91574 4.80209L9.08753 5.63403C8.62958 6.09405 8.63125 6.83623 9.09125 7.2893L14.0633 12.2391L9.11357 17.2111C8.65562 17.6712 8.65729 18.4134 9.1173 18.8664L9.94924 19.6946C10.4093 20.1526 11.1514 20.1509 11.6045 19.6909L18.2058 13.0598C18.6638 12.5998 18.6621 11.8576 18.2021 11.3997Z" fill="#4AEE60"/>
</svg>
