<svg width="44" height="44" viewBox="0 0 44 44" fill="none" xmlns="http://www.w3.org/2000/svg">
<rect x="0.5" y="0.5" width="43" height="43" fill="white"/>
<rect x="0.5" y="0.5" width="43" height="43" stroke="#E9EAF0"/>
<g clip-path="url(#clip0_131_6989)">
<path d="M16.4324 24.0846L15.7362 26.6835L13.1918 26.7373C12.4313 25.3269 12 23.7132 12 21.9983C12 20.3401 12.4033 18.7763 13.1181 17.3994H13.1187L15.384 17.8147L16.3763 20.0664C16.1686 20.672 16.0554 21.322 16.0554 21.9983C16.0555 22.7324 16.1885 23.4357 16.4324 24.0846Z" fill="#FBBB00"/>
<path d="M31.8252 20.1318C31.94 20.7368 31.9999 21.3615 31.9999 22C31.9999 22.7159 31.9246 23.4143 31.7812 24.0879C31.2944 26.3802 30.0224 28.3818 28.2604 29.7983L28.2598 29.7978L25.4065 29.6522L25.0027 27.1313C26.1719 26.4456 27.0857 25.3725 27.567 24.0879H22.2197V20.1318H27.645H31.8252Z" fill="#518EF8"/>
<path d="M28.2595 29.7965L28.2601 29.797C26.5464 31.1745 24.3694 31.9987 21.9996 31.9987C18.1914 31.9987 14.8804 29.8701 13.1914 26.7377L16.4321 24.085C17.2766 26.3388 19.4507 27.9432 21.9996 27.9432C23.0952 27.9432 24.1216 27.647 25.0024 27.13L28.2595 29.7965Z" fill="#28B446"/>
<path d="M28.383 14.3022L25.1434 16.9544C24.2319 16.3846 23.1544 16.0555 22 16.0555C19.3934 16.0555 17.1786 17.7335 16.3764 20.0681L13.1187 17.4011H13.1182C14.7825 14.1923 18.1352 12 22 12C24.4264 12 26.6511 12.8643 28.383 14.3022Z" fill="#F14336"/>
</g>
<defs>
<clipPath id="clip0_131_6989">
<rect width="20" height="20" fill="white" transform="translate(12 12)"/>
</clipPath>
</defs>
</svg>
